<svg version="1.0" xmlns="http://www.w3.org/2000/svg" width="300px" height="200px"
                                viewBox="0 0 872.000000 859.000000" preserveAspectRatio="xMidYMid meet" fill="#E63710"
                                class="pb-3">
                                <g transform="translate(0.000000,859.000000) scale(0.100000,-0.100000)" stroke="none">
                                    <path
                                        d="M4105 8539 c-190 -10 -369 -33 -560 -70 -850 -167 -1562 -537 -2169 -1129 -585 -570 -963 -1220 -1166 -2004 -190 -735 -182 -1467 26 -2216 19 -69 38 -134 43 -146 l9 -21 1424 -6 c782 -4 1852 -10 2376 -14 l952 -6 0 -273 c0 -150 -3 -275 -7 -277 -8 -4 -2015 5 -3710 17 l-813 5 40 -80 c288 -572 785 -1143 1342 -1541 723 -516 1659 -801 2553 -775 740 22 1446 222 2056 583 556 329 1038 785 1400 1326 78 115 259 424 259 440 0 4 -120 9 -267 10 l-268 3 -3 100 c-1 55 1 179 5 274 l8 175 380 -3 380 -3 38 129 c201 686 238 1317 117 1998 -28 156 -108 469 -158 615 -169 496 -433 964 -766 1359 -534 635 -1191 1079 -1967 1330 -349 112 -722 182 -1084 201 -209 11 -250 11 -470 -1z m-218 -1993 c121 -41 192 -85 279 -171 132 -131 192 -274 214 -506 18 -193 -13 -404 -82 -545 -45 -93 -140 -193 -242 -253 -111 -65 -113 -83 -17 -140 359 -213 486 -523 385 -940 -23 -96 -104 -258 -161 -321 -67 -75 -152 -135 -226 -159 -62 -21 -68 -21 -1324 -18 -695 2 -1265 6 -1268 9 -3 3 -3 137 1 297 l7 291 189 0 188 0 0 763 c0 419 3 840 7 935 l6 172 -176 0 -177 0 0 312 0 311 1163 -6 1162 -6 72 -25z m3941 -1182 c10 -3 12 -136 10 -641 l-3 -638 -312 -3 -313 -2 0 255 0 255 -210 0 -210 0 0 -764 c0 -419 -3 -791 -6 -824 l-7 -62 204 -2 204 -3 -2 -289 c-1 -158 -3 -289 -5 -291 -2 -1 -382 0 -846 3 l-842 5 2 291 3 291 207 -4 c171 -3 208 -1 212 10 2 8 7 384 11 837 l7 822 -220 0 -219 0 -6 -157 c-4 -87 -7 -204 -7 -260 l0 -102 -280 -3 -280 -3 0 641 c0 352 3 644 7 648 7 7 2878 -2 2901 -10z">
                                    </path>
                                    <path
                                        d="M2750 5610 l0 -361 288 3 c276 3 289 4 347 27 85 34 158 110 180 186 23 79 17 222 -12 286 -40 90 -128 164 -229 195 -32 10 -127 15 -310 19 l-264 5 0 -360z">
                                    </path>
                                    <path
                                        d="M2747 4648 c-4 -83 -7 -243 -7 -355 l0 -203 193 -2 c361 -5 366 -5 437 22 92 34 172 114 196 195 39 136 -5 309 -99 390 -104 90 -171 105 -478 105 l-236 0 -6 -152z">
                                    </path>
                                </g>
                            </svg>